HIERARCHY
ROOT Hips
{
	OFFSET -13.091600 -28.302996 44.698402
	CHANNELS 6 Xposition Yposition Zposition Zrotation Xrotation Yrotation
	JOINT Chest
	{
		OFFSET -0.673000 0.623899 5.369202
		CHANNELS 6 Xposition Yposition Zposition Zrotation Xrotation Yrotation
		JOINT Chest2
		{
			OFFSET 0.000000 0.000000 4.415001
			CHANNELS 6 Xposition Yposition Zposition Zrotation Xrotation Yrotation
			JOINT Neck
			{
				OFFSET 0.000000 0.000002 10.273300
				CHANNELS 6 Xposition Yposition Zposition Zrotation Xrotation Yrotation
				JOINT Head
				{
					OFFSET 0.000000 0.000000 2.173897
					CHANNELS 6 Xposition Yposition Zposition Zrotation Xrotation Yrotation
					End Site
					{
						OFFSET 0.000000 0.000000 9.961800
					}
				}
			}
			JOINT LeftCollar
			{
				OFFSET 2.359900 -0.565201 5.928101
				CHANNELS 6 Xposition Yposition Zposition Zrotation Xrotation Yrotation
				JOINT LeftShoulder
				{
					OFFSET 5.443700 0.000000 0.000000
					CHANNELS 6 Xposition Yposition Zposition Zrotation Xrotation Yrotation
					JOINT LeftElbow
					{
						OFFSET 0.000000 0.000000 -10.615799
						CHANNELS 6 Xposition Yposition Zposition Zrotation Xrotation Yrotation
						JOINT LeftWrist
						{
							OFFSET 0.000000 -0.000002 -13.110302
							CHANNELS 6 Xposition Yposition Zposition Zrotation Xrotation Yrotation
							End Site
							{
								OFFSET 0.000000 0.000000 -2.173901
							}
						}
					}
				}
			}
			JOINT RightCollar
			{
				OFFSET -2.636600 -1.718800 6.889698
				CHANNELS 6 Xposition Yposition Zposition Zrotation Xrotation Yrotation
				JOINT RightShoulder
				{
					OFFSET -4.139101 0.000000 0.000000
					CHANNELS 6 Xposition Yposition Zposition Zrotation Xrotation Yrotation
					JOINT RightElbow
					{
						OFFSET 0.000000 0.000000 -10.471802
						CHANNELS 6 Xposition Yposition Zposition Zrotation Xrotation Yrotation
						JOINT RightWrist
						{
							OFFSET 0.000000 0.000000 -12.281898
							CHANNELS 6 Xposition Yposition Zposition Zrotation Xrotation Yrotation
							End Site
							{
								OFFSET 0.000000 -0.000002 -2.173901
							}
						}
					}
				}
			}
		}
	}
	JOINT LeftHip
	{
		OFFSET 2.273400 0.176701 -2.518002
		CHANNELS 6 Xposition Yposition Zposition Zrotation Xrotation Yrotation
		JOINT LeftKnee
		{
			OFFSET 0.000000 -0.000002 -20.456402
			CHANNELS 6 Xposition Yposition Zposition Zrotation Xrotation Yrotation
			JOINT LeftAnkle
			{
				OFFSET 0.000000 -0.000002 -16.635300
				CHANNELS 6 Xposition Yposition Zposition Zrotation Xrotation Yrotation
				End Site
				{
					OFFSET 0.000000 -8.812399 0.000001
				}
			}
		}
	}
	JOINT RightHip
	{
		OFFSET -1.914800 0.018101 -2.699299
		CHANNELS 6 Xposition Yposition Zposition Zrotation Xrotation Yrotation
		JOINT RightKnee
		{
			OFFSET 0.000000 -0.000002 -20.148901
			CHANNELS 6 Xposition Yposition Zposition Zrotation Xrotation Yrotation
			JOINT RightAnkle
			{
				OFFSET 0.000000 -0.000002 -16.838301
				CHANNELS 6 Xposition Yposition Zposition Zrotation Xrotation Yrotation
				End Site
				{
					OFFSET 0.000000 -8.328398 0.000001
				}
			}
		}
	}
}
MOTION
Frames: 9
Frame Time: 0.041667
-16.090401 18.699305 23.041101 2135.311003 5.132582 -10.407683 -0.673000 0.623896 5.369206 24.331938 5.023867 6.710876 0.000000 -0.000002 4.415010 -13.853035 -5.593081 -1.672860 0.000004 -0.000001 10.273306 55.940909 -8.694542 -4.806908 -0.000001 -0.000004 2.173900 3.096469 -5.911647 5.481855 2.359900 -0.565205 5.928093 8.991463 -0.320822 1.999300 5.443696 -0.000000 -0.000011 -25.941767 341.653685 -108.604625 0.000000 0.000000 -10.615792 931.068548 -165.748515 180.123167 -0.000004 -0.000005 -13.110305 -1837.333126 0.478956 -52.353578 -2.636601 -1.718805 6.889701 188.625919 -187.730058 175.350941 -4.139097 -0.000003 -0.000001 206.127842 -168.078784 645.753951 -0.000010 0.000006 -10.471800 -129.247560 -59.030504 -527.738227 -0.000000 -0.000001 -12.281897 377.076685 13.980844 79.392084 2.273397 0.176695 -2.518000 -351.317911 -183.140977 -119.311944 -0.000000 -0.000003 -20.456402 552.990365 198.276772 -180.433217 0.000001 -0.000009 -16.635296 -218.470144 11.971652 55.124466 -1.914797 0.018099 -2.699299 35.455881 191.629618 67.196856 0.000006 -0.000001 -20.148909 -355.424630 -172.355876 56.849410 -0.000004 -0.000009 -16.838303 670.103630 5.825306 -28.694936
-16.104095 18.725008 23.033003 2135.322805 5.057680 -10.503871 -0.672999 0.623901 5.369213 24.283209 5.230572 6.803653 -0.000001 -0.000002 4.415010 -13.888025 -5.628793 -1.681903 -0.000000 0.000003 10.273303 55.956513 -8.754729 -4.786149 -0.000003 -0.000005 2.173900 3.093289 -5.925688 5.496067 2.359896 -0.565200 5.928106 9.045417 -0.331137 2.015915 5.443694 0.000000 0.000000 -25.997430 341.500852 -108.624863 -0.000003 -0.000004 -10.615789 931.481528 -165.819699 180.318565 -0.000012 -0.000002 -13.110301 -1837.739004 0.472656 -52.522526 -2.636604 -1.718804 6.889703 188.651341 -187.778593 175.215157 -4.139091 -0.000005 -0.000006 206.227481 -168.163478 645.921974 0.000001 0.000005 -10.471802 -129.349863 -59.064839 -527.719321 0.000003 -0.000000 -12.281899 376.977811 14.003279 79.441992 2.273401 0.176700 -2.517996 -351.530548 -182.893929 -119.353417 0.000000 -0.000005 -20.456400 553.355480 198.406668 -180.377373 -0.000001 -0.000009 -16.635296 -218.539047 11.958892 55.036199 -1.914797 0.018108 -2.699302 35.388033 191.764022 67.132714 0.000003 -0.000003 -20.148903 -355.548339 -172.372897 56.790223 -0.000001 -0.000004 -16.838303 670.125542 5.808600 -28.695240
-16.115803 18.747511 23.024002 2135.383348 5.030537 -10.502526 -0.673000 0.623893 5.369210 24.211748 5.295911 6.783859 -0.000002 -0.000004 4.415005 -14.029904 -5.594314 -1.688809 0.000003 0.000002 10.273299 56.077253 -8.795079 -4.704221 -0.000001 -0.000003 2.173901 3.185353 -5.924456 5.546214 2.359901 -0.565200 5.928102 9.158373 -0.344004 2.030920 5.443696 -0.000003 -0.000009 -26.120662 341.182948 -108.751010 0.000003 -0.000002 -10.615792 932.187059 -166.069916 180.612700 -0.000003 0.000001 -13.110296 -1838.670751 0.350258 -52.690531 -2.636602 -1.718799 6.889704 188.888157 -187.996312 175.294961 -4.139100 0.000000 -0.000002 206.267314 -167.927468 646.026612 -0.000009 0.000007 -10.471798 -129.147648 -59.107863 -527.495619 0.000004 -0.000005 -12.281897 376.997974 14.005047 79.498757 2.273399 0.176693 -2.518002 -351.806078 -182.698148 -119.305687 -0.000003 -0.000004 -20.456400 553.656008 198.545389 -180.349055 0.000001 -0.000009 -16.635296 -218.500265 11.935646 54.973498 -1.914797 0.018103 -2.699296 35.256931 191.816478 67.121437 0.000003 -0.000004 -20.148911 -355.636803 -172.535319 56.765747 0.000004 -0.000002 -16.838303 670.310722 5.855877 -28.655198
-16.124500 18.773310 23.008804 2135.225980 5.098037 -10.612840 -0.672997 0.623901 5.369209 24.348566 5.416340 6.924952 -0.000000 -0.000000 4.415009 -14.130563 -5.611073 -1.698932 0.000000 -0.000006 10.273302 56.054246 -8.825796 -4.625147 -0.000002 -0.000002 2.173903 3.343231 -5.905096 5.607279 2.359900 -0.565203 5.928098 9.234903 -0.327478 2.235690 5.443697 0.000000 -0.000006 -26.158118 341.262452 -108.890291 -0.000002 -0.000004 -10.615788 932.476222 -166.093795 180.612495 -0.000006 0.000000 -13.110300 -1838.818938 0.470144 -52.599543 -2.636603 -1.718807 6.889707 189.338554 -188.318533 174.487742 -4.139100 -0.000003 -0.000002 206.236578 -167.946155 646.943442 0.000003 0.000002 -10.471793 -128.973028 -59.192537 -527.303281 0.000005 -0.000001 -12.281900 377.086684 13.933367 79.547846 2.273400 0.176700 -2.518003 -351.853561 -182.551149 -119.354182 -0.000003 -0.000005 -20.456400 553.965061 198.726717 -180.345613 -0.000004 -0.000008 -16.635300 -218.493599 11.755803 54.875147 -1.914797 0.018106 -2.699303 35.313721 192.050699 66.932582 0.000002 -0.000003 -20.148903 -355.815372 -172.818512 56.722334 -0.000000 -0.000004 -16.838301 670.578684 5.932724 -28.601380
-16.136600 18.803007 22.993198 2135.028834 5.093373 -10.737895 -0.672999 0.623895 5.369204 24.502226 5.670035 7.067096 0.000002 0.000002 4.415005 -14.261009 -5.624591 -1.719658 0.000001 0.000001 10.273293 56.034336 -8.886778 -4.546688 0.000002 -0.000006 2.173898 3.542697 -5.833126 5.643778 2.359898 -0.565200 5.928091 9.304442 -0.357977 2.224591 5.443696 -0.000002 0.000001 -26.098257 341.118253 -108.814599 -0.000004 -0.000002 -10.615791 932.370983 -166.085448 180.526695 -0.000008 -0.000000 -13.110296 -1838.768013 0.461671 -52.551943 -2.636605 -1.718798 6.889694 189.576285 -188.569857 174.650396 -4.139097 -0.000009 -0.000001 206.262806 -167.556821 646.946229 -0.000003 0.000009 -10.471801 -129.404832 -59.250709 -527.647741 0.000000 -0.000008 -12.281898 376.932022 13.964569 79.523326 2.273399 0.176696 -2.518000 -352.056063 -182.193821 -119.443425 -0.000000 -0.000004 -20.456402 554.587974 199.080671 -180.182999 -0.000001 -0.000011 -16.635298 -218.714911 11.525306 54.786843 -1.914797 0.018102 -2.699300 35.419230 192.221946 66.756268 0.000002 -0.000003 -20.148909 -356.009349 -172.829850 56.671698 -0.000002 -0.000006 -16.838301 670.621687 5.992196 -28.685586
-16.153601 18.841311 22.969599 2134.910808 5.144670 -10.786708 -0.673001 0.623899 5.369213 24.593317 5.855726 7.058453 0.000001 -0.000002 4.415009 -14.300779 -5.664659 -1.726501 0.000001 0.000002 10.273291 56.005755 -8.853883 -4.314760 -0.000001 -0.000009 2.173890 3.703872 -5.864628 5.591124 2.359899 -0.565203 5.928102 9.400375 -0.430421 2.470140 5.443696 -0.000001 0.000011 -26.185941 341.276112 -108.969029 -0.000001 -0.000002 -10.615792 932.328362 -166.244687 180.486984 -0.000004 -0.000007 -13.110296 -1838.470763 0.477677 -52.439443 -2.636604 -1.718801 6.889704 189.675419 -188.652871 174.996837 -4.139099 -0.000003 0.000001 206.308241 -167.210203 646.816401 0.000000 0.000004 -10.471802 -129.909296 -59.244917 -528.131537 0.000001 -0.000003 -12.281896 376.694331 14.109048 79.501886 2.273399 0.176699 -2.518002 -352.474180 -181.807341 -119.445529 -0.000004 -0.000005 -20.456404 555.285418 199.547460 -180.028733 -0.000003 -0.000008 -16.635294 -218.699925 11.042614 54.594409 -1.914798 0.018108 -2.699293 35.478926 192.251001 66.581026 0.000001 -0.000001 -20.148907 -356.245073 -172.722835 56.597471 0.000004 -0.000004 -16.838301 670.542566 6.048677 -28.821786
-16.170300 18.883108 22.950899 2134.770926 5.370704 -10.757333 -0.672997 0.623895 5.369210 24.739650 5.856131 7.026889 0.000003 0.000001 4.415008 -14.366408 -5.688217 -1.738130 0.000002 -0.000003 10.273302 56.119143 -8.812699 -4.106089 -0.000001 -0.000004 2.173893 3.721519 -5.926026 5.598075 2.359898 -0.565208 5.928100 9.542945 -0.608202 2.559985 5.443693 0.000000 0.000005 -26.181727 341.557598 -108.836216 -0.000006 -0.000001 -10.615789 932.272737 -166.376223 180.330450 -0.000005 -0.000007 -13.110292 -1838.096796 0.512008 -52.168992 -2.636601 -1.718807 6.889702 189.669722 -188.630236 175.601773 -4.139095 -0.000004 -0.000006 206.432496 -166.718880 646.501502 -0.000005 0.000004 -10.471796 -128.600482 -59.170345 -527.225034 0.000001 0.000001 -12.281898 377.327845 14.026341 79.523797 2.273397 0.176697 -2.518001 -352.879073 -181.606629 -119.420612 -0.000000 -0.000005 -20.456400 555.898278 200.040285 -179.900175 0.000001 -0.000008 -16.635296 -218.722451 10.524872 54.254672 -1.914797 0.018099 -2.699294 35.644954 192.113373 66.419341 0.000002 -0.000005 -20.148907 -356.383261 -172.740074 56.543287 -0.000000 -0.000006 -16.838305 670.522731 6.078380 -28.902926
-16.183201 18.921713 22.933706 2134.520668 5.636703 -10.776217 -0.673003 0.623903 5.369200 24.989336 5.891409 7.074958 0.000003 -0.000001 4.415009 -14.403496 -5.750036 -1.743168 -0.000002 -0.000000 10.273310 56.043232 -8.807456 -3.936460 -0.000000 0.000001 2.173901 3.717903 -5.985840 5.506580 2.359898 -0.565203 5.928102 9.674495 -0.701616 2.671921 5.443690 0.000001 -0.000002 -26.214121 341.701332 -108.709694 0.000001 -0.000007 -10.615791 931.781619 -166.398571 180.073757 -0.000003 -0.000001 -13.110293 -1837.251820 0.625271 -51.944804 -2.636602 -1.718806 6.889704 189.532627 -188.421055 175.681536 -4.139102 -0.000003 -0.000005 206.750209 -166.771786 646.557892 0.000001 0.000000 -10.471789 -129.571421 -59.270360 -528.149459 0.000003 -0.000000 -12.281896 376.872298 14.035997 79.506598 2.273400 0.176698 -2.518010 -353.074335 -181.528765 -119.461170 -0.000001 -0.000004 -20.456402 556.714622 200.510981 -179.612050 -0.000002 -0.000007 -16.635298 -219.028498 9.940891 53.907558 -1.914800 0.018106 -2.699305 35.911854 191.994323 66.191370 -0.000000 -0.000003 -20.148905 -356.573960 -172.635313 56.464392 0.000002 -0.000005 -16.838301 670.363287 6.061165 -29.002858
-16.201000 18.956106 22.921600 2134.522198 5.847585 -10.666161 -0.673001 0.623889 5.369209 25.001653 5.841408 6.981306 0.000001 0.000001 4.415005 -14.481147 -5.782427 -1.743526 0.000003 -0.000001 10.273304 56.049775 -8.821666 -3.785633 -0.000001 -0.000006 2.173901 3.616289 -6.114984 5.437604 2.359900 -0.565205 5.928102 9.719950 -0.659685 2.742068 5.443688 0.000001 0.000003 -26.275958 341.374876 -108.756651 -0.000003 0.000002 -10.615792 931.795170 -166.579325 180.157796 -0.000006 -0.000002 -13.110300 -1837.013146 0.737723 -51.831515 -2.636600 -1.718805 6.889702 189.384658 -188.223198 175.607524 -4.139091 -0.000003 -0.000004 207.145267 -166.930069 646.704058 0.000001 0.000004 -10.471795 -130.807876 -59.398624 -529.224804 -0.000004 0.000000 -12.281895 376.331949 14.024672 79.336172 2.273400 0.176695 -2.517999 -353.567092 -181.414182 -119.334920 -0.000002 -0.000005 -20.456398 557.599705 201.013615 -179.300006 -0.000000 -0.000006 -16.635298 -219.397998 9.354149 53.634054 -1.914799 0.018097 -2.699299 35.934131 191.709422 66.171105 0.000004 -0.000001 -20.148903 -356.727830 -172.468232 56.436849 0.000003 -0.000003 -16.838303 670.126470 6.037411 -29.037795
